# xmcd
#
# Track frame offsets:
#	150
#	17720
#	36552
#	50894
#	67169
#	83021
#	96532
#	110762
#	129404
#	146199
#
# Disc length: 2177 seconds
#
# Revision: 0
# Processed by: cddbd v1.5.2PL0 Copyright (c) Steve Scherf et al.
# Submitted via: audiograbber 1.83.01
#
DISCID=9d087f0a
DTITLE=Amity - With You
DYEAR=2012
DGENRE=Country
TTITLE0=With You
TTITLE1=What Does It Take
TTITLE2=She's Beautiful
TTITLE3=Ghost
TTITLE4=Forever's What I'm Holding Tonight
TTITLE5=You'll Be Lucky
TTITLE6=Blue Eyes
TTITLE7=Sweet Everything
TTITLE8=How Far
TTITLE9=We're Together
EXTD=Australian Country Band.  Vocals by Rebecca and Penelope Somerville
EXTT0=
EXTT1=
EXTT2=
EXTT3=
EXTT4=
EXTT5=
EXTT6=
EXTT7=
EXTT8=
EXTT9=
PLAYORDER=
